# MagicaVoxel @ ephtracy

# material
mtllib HighChair.mtl
usemtl palette

# normals
vn -1 0 0
vn 1 0 0
vn 0 0 1
vn 0 0 -1
vn 0 -1 0
vn 0 1 0

# texcoords
vt 0.880859 0.5
vt 0.958984 0.5
vt 0.986328 0.5
vt 0.990234 0.5

# verts
v -7 16 -37
v -7 16 -40
v -7 18 -37
v -7 18 -40
v -6 0 -39
v -6 0 -40
v -6 6 -33
v -6 6 -39
v -6 6 -40
v -6 7 -34
v -6 7 -39
v -6 8 -33
v -6 8 -34
v -6 8 -35
v -6 8 -38
v -6 9 -33
v -6 9 -35
v -6 16 -38
v -6 16 -39
v -6 16 -40
v -5 0 -33
v -5 0 -34
v -5 0 -40
v -5 0 -41
v -5 4 -34
v -5 4 -35
v -5 4 -39
v -5 5 -33
v -5 5 -34
v -5 5 -35
v -5 5 -39
v -5 6 -34
v -5 6 -39
v -5 6 -40
v -5 6 -41
v -5 16 -40
v -5 16 -41
v -5 18 -40
v -5 18 -41
v -4 5 -33
v -4 5 -34
v -4 6 -33
v -4 6 -34
v -4 11 -39
v -4 11 -40
v -4 12 -39
v -4 12 -40
v -4 18 -40
v -4 18 -41
v -4 19 -40
v -4 19 -41
v -3 12 -39
v -3 12 -40
v -3 13 -39
v -3 13 -40
v -3 19 -40
v -3 19 -41
v -3 20 -40
v -3 20 -41
v 2 0 -33
v 2 0 -34
v 2 0 -40
v 2 0 -41
v 2 4 -33
v 2 4 -34
v 2 4 -40
v 2 4 -41
v 3 0 -39
v 3 0 -40
v 3 4 -39
v 3 4 -40
v 3 6 -33
v 3 6 -34
v 3 6 -39
v 3 7 -34
v 3 7 -39
v 3 8 -33
v 3 8 -34
v 3 8 -35
v 3 8 -38
v 3 9 -33
v 3 9 -35
v 3 11 -39
v 3 11 -40
v 3 16 -37
v 3 16 -38
v 3 16 -40
v 3 18 -37
v 3 18 -40
v -5 0 -39
v -5 0 -40
v -5 4 -39
v -5 4 -40
v -5 6 -33
v -5 6 -34
v -5 6 -39
v -5 7 -34
v -5 7 -39
v -5 8 -33
v -5 8 -34
v -5 8 -35
v -5 8 -38
v -5 9 -33
v -5 9 -35
v -5 11 -39
v -5 11 -40
v -5 16 -37
v -5 16 -38
v -5 16 -39
v -5 16 -40
v -5 18 -37
v -5 18 -40
v -4 0 -33
v -4 0 -34
v -4 0 -40
v -4 0 -41
v -4 4 -33
v -4 4 -34
v -4 4 -40
v -4 4 -41
v 1 12 -39
v 1 12 -40
v 1 13 -39
v 1 13 -40
v 1 19 -40
v 1 19 -41
v 1 20 -40
v 1 20 -41
v 2 5 -33
v 2 5 -34
v 2 6 -33
v 2 6 -34
v 2 11 -39
v 2 11 -40
v 2 12 -39
v 2 12 -40
v 2 18 -40
v 2 18 -41
v 2 19 -40
v 2 19 -41
v 3 0 -33
v 3 0 -34
v 3 0 -40
v 3 0 -41
v 3 4 -34
v 3 4 -39
v 3 5 -33
v 3 5 -34
v 3 5 -39
v 3 6 -34
v 3 6 -39
v 3 6 -40
v 3 6 -41
v 3 16 -40
v 3 16 -41
v 3 18 -40
v 3 18 -41
v 4 0 -39
v 4 0 -40
v 4 6 -33
v 4 6 -39
v 4 6 -40
v 4 7 -34
v 4 7 -39
v 4 8 -33
v 4 8 -34
v 4 8 -35
v 4 8 -38
v 4 9 -33
v 4 9 -35
v 4 16 -38
v 4 16 -40
v 5 16 -37
v 5 16 -40
v 5 18 -37
v 5 18 -40
v -6 6 -33
v -6 8 -33
v -6 9 -33
v -5 0 -33
v -5 5 -33
v -5 6 -33
v -5 8 -33
v -5 9 -33
v -4 0 -33
v -4 4 -33
v -4 5 -33
v -4 6 -33
v 2 0 -33
v 2 4 -33
v 2 5 -33
v 2 6 -33
v 3 0 -33
v 3 5 -33
v 3 6 -33
v 3 8 -33
v 3 9 -33
v 4 6 -33
v 4 8 -33
v 4 9 -33
v -5 5 -34
v -5 6 -34
v -4 5 -34
v -4 6 -34
v 2 5 -34
v 2 6 -34
v 3 5 -34
v 3 6 -34
v -7 16 -37
v -7 18 -37
v -5 16 -37
v -5 18 -37
v 3 16 -37
v 3 18 -37
v 5 16 -37
v 5 18 -37
v -6 8 -38
v -6 16 -38
v -5 8 -38
v -5 16 -38
v 3 8 -38
v 3 16 -38
v 4 8 -38
v 4 16 -38
v -6 0 -39
v -6 6 -39
v -5 0 -39
v -5 4 -39
v -5 5 -39
v -5 6 -39
v -5 7 -39
v -5 11 -39
v -4 6 -39
v -4 11 -39
v -4 12 -39
v -3 11 -39
v -3 12 -39
v -3 13 -39
v 1 11 -39
v 1 12 -39
v 1 13 -39
v 2 6 -39
v 2 11 -39
v 2 12 -39
v 3 0 -39
v 3 4 -39
v 3 5 -39
v 3 6 -39
v 3 7 -39
v 3 11 -39
v 4 0 -39
v 4 6 -39
v -5 0 -40
v -5 4 -40
v -5 11 -40
v -5 16 -40
v -5 18 -40
v -4 0 -40
v -4 4 -40
v -4 11 -40
v -4 12 -40
v -4 16 -40
v -4 18 -40
v -4 19 -40
v -3 12 -40
v -3 13 -40
v -3 18 -40
v -3 19 -40
v -3 20 -40
v 1 12 -40
v 1 13 -40
v 1 18 -40
v 1 19 -40
v 1 20 -40
v 2 0 -40
v 2 4 -40
v 2 11 -40
v 2 12 -40
v 2 16 -40
v 2 18 -40
v 2 19 -40
v 3 0 -40
v 3 4 -40
v 3 11 -40
v 3 16 -40
v 3 18 -40
v -5 0 -34
v -5 4 -34
v -4 0 -34
v -4 4 -34
v 2 0 -34
v 2 4 -34
v 3 0 -34
v 3 4 -34
v -6 8 -35
v -6 9 -35
v -5 8 -35
v -5 9 -35
v 3 8 -35
v 3 9 -35
v 4 8 -35
v 4 9 -35
v -7 16 -40
v -7 18 -40
v -6 0 -40
v -6 6 -40
v -6 16 -40
v -5 0 -40
v -5 6 -40
v -5 16 -40
v -5 18 -40
v 3 0 -40
v 3 6 -40
v 3 16 -40
v 3 18 -40
v 4 0 -40
v 4 6 -40
v 4 16 -40
v 5 16 -40
v 5 18 -40
v -5 0 -41
v -5 6 -41
v -5 16 -41
v -5 18 -41
v -4 0 -41
v -4 4 -41
v -4 6 -41
v -4 16 -41
v -4 18 -41
v -4 19 -41
v -3 18 -41
v -3 19 -41
v -3 20 -41
v 1 18 -41
v 1 19 -41
v 1 20 -41
v 2 0 -41
v 2 4 -41
v 2 6 -41
v 2 16 -41
v 2 18 -41
v 2 19 -41
v 3 0 -41
v 3 6 -41
v 3 16 -41
v 3 18 -41
v -5 0 -33
v -4 0 -33
v 2 0 -33
v 3 0 -33
v -5 0 -34
v -4 0 -34
v 2 0 -34
v 3 0 -34
v -6 0 -39
v -5 0 -39
v 3 0 -39
v 4 0 -39
v -6 0 -40
v -5 0 -40
v -4 0 -40
v 2 0 -40
v 3 0 -40
v 4 0 -40
v -5 0 -41
v -4 0 -41
v 2 0 -41
v 3 0 -41
v -4 4 -33
v 2 4 -33
v -5 4 -34
v -4 4 -34
v 2 4 -34
v 3 4 -34
v -5 4 -35
v -4 4 -35
v -5 4 -39
v -4 4 -39
v 2 4 -39
v 3 4 -39
v -5 4 -40
v -4 4 -40
v 2 4 -40
v 3 4 -40
v -4 4 -41
v 2 4 -41
v -6 6 -33
v -5 6 -33
v 3 6 -33
v 4 6 -33
v -5 6 -34
v 3 6 -34
v -6 6 -39
v -5 6 -39
v 3 6 -39
v 4 6 -39
v -7 16 -37
v -5 16 -37
v 3 16 -37
v 5 16 -37
v -6 16 -38
v -5 16 -38
v 3 16 -38
v 4 16 -38
v -6 16 -39
v -7 16 -40
v -6 16 -40
v 4 16 -40
v 5 16 -40
v -5 5 -33
v -4 5 -33
v 2 5 -33
v 3 5 -33
v -5 5 -34
v -4 5 -34
v 2 5 -34
v 3 5 -34
v -4 6 -33
v 2 6 -33
v -5 6 -34
v -4 6 -34
v 2 6 -34
v 3 6 -34
v -5 6 -39
v -4 6 -39
v 2 6 -39
v 3 6 -39
v -6 8 -35
v -5 8 -35
v 3 8 -35
v 4 8 -35
v -6 8 -38
v -5 8 -38
v 3 8 -38
v 4 8 -38
v -6 9 -33
v -5 9 -33
v 3 9 -33
v 4 9 -33
v -6 9 -35
v -5 9 -35
v 3 9 -35
v 4 9 -35
v -5 11 -39
v -4 11 -39
v 2 11 -39
v 3 11 -39
v -5 11 -40
v -4 11 -40
v 2 11 -40
v 3 11 -40
v -4 12 -39
v -3 12 -39
v 1 12 -39
v 2 12 -39
v -4 12 -40
v -3 12 -40
v 1 12 -40
v 2 12 -40
v -3 13 -39
v 1 13 -39
v -3 13 -40
v 1 13 -40
v -7 18 -37
v -5 18 -37
v 3 18 -37
v 5 18 -37
v -7 18 -40
v -5 18 -40
v -4 18 -40
v 2 18 -40
v 3 18 -40
v 5 18 -40
v -5 18 -41
v -4 18 -41
v 2 18 -41
v 3 18 -41
v -4 19 -40
v -3 19 -40
v 1 19 -40
v 2 19 -40
v -4 19 -41
v -3 19 -41
v 1 19 -41
v 2 19 -41
v -3 20 -40
v 1 20 -40
v -3 20 -41
v 1 20 -41

# faces
f 3/1/1 2/1/1 1/1/1
f 4/1/1 2/1/1 3/1/1
f 8/3/1 6/3/1 5/3/1
f 9/3/1 6/3/1 8/3/1
f 10/2/1 8/2/1 7/2/1
f 10/2/1 9/2/1 8/2/1
f 11/2/1 9/2/1 10/2/1
f 12/2/1 10/2/1 7/2/1
f 13/1/1 11/1/1 10/1/1
f 13/2/1 10/2/1 12/2/1
f 14/1/1 11/1/1 13/1/1
f 15/1/1 11/1/1 14/1/1
f 16/1/1 13/1/1 12/1/1
f 16/1/1 14/1/1 13/1/1
f 17/1/1 14/1/1 16/1/1
f 18/1/1 11/1/1 15/1/1
f 19/2/1 9/2/1 11/2/1
f 19/1/1 11/1/1 18/1/1
f 20/2/1 9/2/1 19/2/1
f 25/3/1 22/3/1 21/3/1
f 28/3/1 25/3/1 21/3/1
f 29/1/1 26/1/1 25/1/1
f 29/3/1 25/3/1 28/3/1
f 30/2/1 27/2/1 26/2/1
f 30/1/1 26/1/1 29/1/1
f 31/2/1 27/2/1 30/2/1
f 32/1/1 30/1/1 29/1/1
f 32/1/1 31/1/1 30/1/1
f 33/1/1 31/1/1 32/1/1
f 34/3/1 24/3/1 23/3/1
f 35/3/1 24/3/1 34/3/1
f 36/2/1 35/2/1 34/2/1
f 37/2/1 35/2/1 36/2/1
f 38/1/1 37/1/1 36/1/1
f 39/1/1 37/1/1 38/1/1
f 42/2/1 41/2/1 40/2/1
f 43/2/1 41/2/1 42/2/1
f 46/1/1 45/1/1 44/1/1
f 47/1/1 45/1/1 46/1/1
f 50/1/1 49/1/1 48/1/1
f 51/1/1 49/1/1 50/1/1
f 54/1/1 53/1/1 52/1/1
f 55/1/1 53/1/1 54/1/1
f 58/1/1 57/1/1 56/1/1
f 59/1/1 57/1/1 58/1/1
f 64/3/1 61/3/1 60/3/1
f 65/3/1 61/3/1 64/3/1
f 66/3/1 63/3/1 62/3/1
f 67/3/1 63/3/1 66/3/1
f 70/3/1 69/3/1 68/3/1
f 71/3/1 69/3/1 70/3/1
f 75/2/1 73/2/1 72/2/1
f 75/2/1 74/2/1 73/2/1
f 76/2/1 74/2/1 75/2/1
f 77/2/1 75/2/1 72/2/1
f 78/1/1 76/1/1 75/1/1
f 78/2/1 75/2/1 77/2/1
f 79/1/1 76/1/1 78/1/1
f 80/1/1 76/1/1 79/1/1
f 81/1/1 78/1/1 77/1/1
f 81/1/1 79/1/1 78/1/1
f 82/1/1 79/1/1 81/1/1
f 83/1/1 76/1/1 80/1/1
f 86/1/1 83/1/1 80/1/1
f 86/1/1 84/1/1 83/1/1
f 87/1/1 84/1/1 86/1/1
f 88/1/1 86/1/1 85/1/1
f 88/1/1 87/1/1 86/1/1
f 89/1/1 87/1/1 88/1/1
f 90/3/2 91/3/2 92/3/2
f 92/3/2 91/3/2 93/3/2
f 94/2/2 95/2/2 97/2/2
f 95/2/2 96/2/2 97/2/2
f 97/2/2 96/2/2 98/2/2
f 94/2/2 97/2/2 99/2/2
f 97/1/2 98/1/2 100/1/2
f 99/2/2 97/2/2 100/2/2
f 100/1/2 98/1/2 101/1/2
f 101/1/2 98/1/2 102/1/2
f 99/1/2 100/1/2 103/1/2
f 100/1/2 101/1/2 103/1/2
f 103/1/2 101/1/2 104/1/2
f 102/1/2 98/1/2 105/1/2
f 102/1/2 105/1/2 108/1/2
f 105/2/2 106/2/2 109/2/2
f 108/1/2 105/1/2 109/1/2
f 109/2/2 106/2/2 110/2/2
f 107/1/2 108/1/2 111/1/2
f 108/1/2 109/1/2 111/1/2
f 109/1/2 110/1/2 111/1/2
f 111/1/2 110/1/2 112/1/2
f 113/3/2 114/3/2 117/3/2
f 117/3/2 114/3/2 118/3/2
f 115/3/2 116/3/2 119/3/2
f 119/3/2 116/3/2 120/3/2
f 121/1/2 122/1/2 123/1/2
f 123/1/2 122/1/2 124/1/2
f 125/1/2 126/1/2 127/1/2
f 127/1/2 126/1/2 128/1/2
f 129/2/2 130/2/2 131/2/2
f 131/2/2 130/2/2 132/2/2
f 133/1/2 134/1/2 135/1/2
f 135/1/2 134/1/2 136/1/2
f 137/1/2 138/1/2 139/1/2
f 139/1/2 138/1/2 140/1/2
f 141/3/2 142/3/2 145/3/2
f 141/3/2 145/3/2 147/3/2
f 145/3/2 146/3/2 147/3/2
f 147/3/2 146/3/2 148/3/2
f 148/3/2 146/3/2 149/3/2
f 148/1/2 149/1/2 150/1/2
f 150/1/2 149/1/2 151/1/2
f 143/3/2 144/3/2 152/3/2
f 152/3/2 144/3/2 153/3/2
f 152/2/2 153/2/2 154/2/2
f 154/2/2 153/2/2 155/2/2
f 154/1/2 155/1/2 156/1/2
f 156/1/2 155/1/2 157/1/2
f 158/3/2 159/3/2 161/3/2
f 161/3/2 159/3/2 162/3/2
f 160/2/2 161/2/2 163/2/2
f 161/1/2 162/1/2 164/1/2
f 163/2/2 161/2/2 164/2/2
f 160/2/2 163/2/2 165/2/2
f 163/1/2 164/1/2 166/1/2
f 165/2/2 163/2/2 166/2/2
f 166/1/2 164/1/2 167/1/2
f 167/1/2 164/1/2 168/1/2
f 165/1/2 166/1/2 169/1/2
f 166/1/2 167/1/2 169/1/2
f 169/1/2 167/1/2 170/1/2
f 168/1/2 164/1/2 171/1/2
f 164/1/2 162/1/2 172/1/2
f 171/1/2 164/1/2 172/1/2
f 173/1/2 174/1/2 175/1/2
f 175/1/2 174/1/2 176/1/2
f 182/2/3 178/2/3 177/2/3
f 183/1/3 179/1/3 178/1/3
f 183/2/3 178/2/3 182/2/3
f 184/1/3 179/1/3 183/1/3
f 185/3/3 181/3/3 180/3/3
f 186/3/3 181/3/3 185/3/3
f 187/3/3 181/3/3 186/3/3
f 190/1/3 187/1/3 186/1/3
f 191/2/3 188/2/3 187/2/3
f 191/1/3 187/1/3 190/1/3
f 192/2/3 188/2/3 191/2/3
f 193/3/3 190/3/3 189/3/3
f 193/3/3 191/3/3 190/3/3
f 194/3/3 191/3/3 193/3/3
f 198/2/3 196/2/3 195/2/3
f 199/1/3 197/1/3 196/1/3
f 199/2/3 196/2/3 198/2/3
f 200/1/3 197/1/3 199/1/3
f 203/1/3 202/1/3 201/1/3
f 204/1/3 202/1/3 203/1/3
f 207/1/3 206/1/3 205/1/3
f 208/1/3 206/1/3 207/1/3
f 211/1/3 210/1/3 209/1/3
f 212/1/3 210/1/3 211/1/3
f 215/1/3 214/1/3 213/1/3
f 216/1/3 214/1/3 215/1/3
f 219/1/3 218/1/3 217/1/3
f 220/1/3 218/1/3 219/1/3
f 223/1/3 222/1/3 221/1/3
f 224/1/3 222/1/3 223/1/3
f 227/3/3 226/3/3 225/3/3
f 228/3/3 226/3/3 227/3/3
f 229/3/3 226/3/3 228/3/3
f 230/3/3 226/3/3 229/3/3
f 233/1/3 232/1/3 231/1/3
f 233/1/3 231/1/3 230/1/3
f 234/1/3 232/1/3 233/1/3
f 236/2/3 234/2/3 233/2/3
f 236/1/3 235/1/3 234/1/3
f 237/1/3 235/1/3 236/1/3
f 239/2/3 236/2/3 233/2/3
f 239/2/3 237/2/3 236/2/3
f 240/1/3 238/1/3 237/1/3
f 240/2/3 237/2/3 239/2/3
f 241/1/3 238/1/3 240/1/3
f 242/2/3 239/2/3 233/2/3
f 243/1/3 240/1/3 239/1/3
f 243/2/3 239/2/3 242/2/3
f 244/1/3 240/1/3 243/1/3
f 248/1/3 243/1/3 242/1/3
f 249/1/3 243/1/3 248/1/3
f 250/1/3 243/1/3 249/1/3
f 251/3/3 247/3/3 246/3/3
f 251/3/3 246/3/3 245/3/3
f 251/3/3 248/3/3 247/3/3
f 252/3/3 248/3/3 251/3/3
f 258/3/3 254/3/3 253/3/3
f 259/3/3 254/3/3 258/3/3
f 260/2/3 256/2/3 255/2/3
f 261/2/3 256/2/3 260/2/3
f 262/1/3 257/1/3 256/1/3
f 262/2/3 256/2/3 261/2/3
f 263/1/3 257/1/3 262/1/3
f 265/2/3 263/2/3 262/2/3
f 265/2/3 262/2/3 261/2/3
f 266/2/3 263/2/3 265/2/3
f 267/1/3 264/1/3 263/1/3
f 267/2/3 263/2/3 266/2/3
f 268/1/3 264/1/3 267/1/3
f 271/2/3 267/2/3 266/2/3
f 271/2/3 268/2/3 267/2/3
f 272/2/3 268/2/3 271/2/3
f 273/1/3 269/1/3 268/1/3
f 273/2/3 268/2/3 272/2/3
f 274/1/3 269/1/3 273/1/3
f 278/2/3 272/2/3 271/2/3
f 278/2/3 271/2/3 270/2/3
f 279/2/3 272/2/3 278/2/3
f 280/1/3 273/1/3 272/1/3
f 280/2/3 272/2/3 279/2/3
f 281/1/3 273/1/3 280/1/3
f 282/3/3 276/3/3 275/3/3
f 283/3/3 276/3/3 282/3/3
f 284/2/3 279/2/3 278/2/3
f 284/2/3 278/2/3 277/2/3
f 285/1/3 280/1/3 279/1/3
f 285/2/3 279/2/3 284/2/3
f 286/1/3 280/1/3 285/1/3
f 287/3/4 288/3/4 289/3/4
f 289/3/4 288/3/4 290/3/4
f 291/3/4 292/3/4 293/3/4
f 293/3/4 292/3/4 294/3/4
f 295/1/4 296/1/4 297/1/4
f 297/1/4 296/1/4 298/1/4
f 299/1/4 300/1/4 301/1/4
f 301/1/4 300/1/4 302/1/4
f 303/1/4 304/1/4 307/1/4
f 305/3/4 306/3/4 308/3/4
f 306/2/4 307/2/4 309/2/4
f 308/3/4 306/3/4 309/3/4
f 307/1/4 304/1/4 310/1/4
f 309/2/4 307/2/4 310/2/4
f 310/1/4 304/1/4 311/1/4
f 312/3/4 313/3/4 316/3/4
f 314/1/4 315/1/4 317/1/4
f 316/3/4 313/3/4 317/3/4
f 313/1/4 314/1/4 317/1/4
f 317/1/4 315/1/4 318/1/4
f 318/1/4 315/1/4 319/1/4
f 319/1/4 315/1/4 320/1/4
f 321/3/4 322/3/4 325/3/4
f 325/3/4 322/3/4 326/3/4
f 322/2/4 323/2/4 327/2/4
f 326/3/4 322/3/4 327/3/4
f 323/1/4 324/1/4 328/1/4
f 327/2/4 323/2/4 328/2/4
f 328/1/4 324/1/4 329/1/4
f 326/2/4 327/2/4 331/2/4
f 329/1/4 330/1/4 331/1/4
f 328/2/4 329/2/4 331/2/4
f 327/2/4 328/2/4 331/2/4
f 331/1/4 330/1/4 332/1/4
f 326/2/4 331/2/4 334/2/4
f 331/2/4 332/2/4 334/2/4
f 332/1/4 333/1/4 335/1/4
f 334/2/4 332/2/4 335/2/4
f 335/1/4 333/1/4 336/1/4
f 326/2/4 334/2/4 338/2/4
f 338/2/4 334/2/4 339/2/4
f 339/2/4 334/2/4 340/2/4
f 334/1/4 335/1/4 341/1/4
f 340/2/4 334/2/4 341/2/4
f 341/1/4 335/1/4 342/1/4
f 337/3/4 338/3/4 343/3/4
f 338/3/4 339/3/4 343/3/4
f 339/2/4 340/2/4 344/2/4
f 343/3/4 339/3/4 344/3/4
f 340/1/4 341/1/4 345/1/4
f 344/2/4 340/2/4 345/2/4
f 345/1/4 341/1/4 346/1/4
f 351/3/5 348/3/5 347/3/5
f 352/3/5 348/3/5 351/3/5
f 353/3/5 350/3/5 349/3/5
f 354/3/5 350/3/5 353/3/5
f 359/3/5 356/3/5 355/3/5
f 360/3/5 356/3/5 359/3/5
f 363/3/5 358/3/5 357/3/5
f 364/3/5 358/3/5 363/3/5
f 365/3/5 361/3/5 360/3/5
f 366/3/5 361/3/5 365/3/5
f 367/3/5 363/3/5 362/3/5
f 368/3/5 363/3/5 367/3/5
f 372/1/5 370/1/5 369/1/5
f 373/1/5 370/1/5 372/1/5
f 375/1/5 372/1/5 371/1/5
f 376/4/5 373/4/5 372/4/5
f 376/1/5 372/1/5 375/1/5
f 377/2/5 376/2/5 375/2/5
f 378/4/5 373/4/5 376/4/5
f 378/2/5 376/2/5 377/2/5
f 379/3/5 374/3/5 373/3/5
f 379/4/5 373/4/5 378/4/5
f 380/3/5 374/3/5 379/3/5
f 381/2/5 378/2/5 377/2/5
f 381/2/5 379/2/5 378/2/5
f 382/2/5 379/2/5 381/2/5
f 383/4/5 380/4/5 379/4/5
f 383/2/5 379/2/5 382/2/5
f 384/4/5 380/4/5 383/4/5
f 385/2/5 383/2/5 382/2/5
f 386/2/5 383/2/5 385/2/5
f 391/2/5 388/2/5 387/2/5
f 392/2/5 390/2/5 389/2/5
f 393/2/5 391/2/5 387/2/5
f 394/2/5 391/2/5 393/2/5
f 395/2/5 390/2/5 392/2/5
f 396/2/5 390/2/5 395/2/5
f 401/1/5 398/1/5 397/1/5
f 402/1/5 398/1/5 401/1/5
f 403/1/5 400/1/5 399/1/5
f 404/1/5 400/1/5 403/1/5
f 405/1/5 401/1/5 397/1/5
f 406/1/5 405/1/5 397/1/5
f 407/1/5 405/1/5 406/1/5
f 408/1/5 400/1/5 404/1/5
f 409/1/5 400/1/5 408/1/5
f 410/3/6 411/3/6 414/3/6
f 414/3/6 411/3/6 415/3/6
f 412/3/6 413/3/6 416/3/6
f 416/3/6 413/3/6 417/3/6
f 418/2/6 419/2/6 421/2/6
f 421/2/6 419/2/6 422/2/6
f 420/1/6 421/1/6 424/1/6
f 421/2/6 422/2/6 425/2/6
f 424/1/6 421/1/6 425/1/6
f 422/1/6 423/1/6 426/1/6
f 425/2/6 422/2/6 426/2/6
f 426/1/6 423/1/6 427/1/6
f 428/1/6 429/1/6 432/1/6
f 432/1/6 429/1/6 433/1/6
f 430/1/6 431/1/6 434/1/6
f 434/1/6 431/1/6 435/1/6
f 436/1/6 437/1/6 440/1/6
f 440/1/6 437/1/6 441/1/6
f 438/1/6 439/1/6 442/1/6
f 442/1/6 439/1/6 443/1/6
f 444/1/6 445/1/6 448/1/6
f 448/1/6 445/1/6 449/1/6
f 446/1/6 447/1/6 450/1/6
f 450/1/6 447/1/6 451/1/6
f 452/1/6 453/1/6 456/1/6
f 456/1/6 453/1/6 457/1/6
f 454/1/6 455/1/6 458/1/6
f 458/1/6 455/1/6 459/1/6
f 460/1/6 461/1/6 462/1/6
f 462/1/6 461/1/6 463/1/6
f 464/1/6 465/1/6 468/1/6
f 468/1/6 465/1/6 469/1/6
f 466/1/6 467/1/6 472/1/6
f 472/1/6 467/1/6 473/1/6
f 469/1/6 470/1/6 474/1/6
f 474/1/6 470/1/6 475/1/6
f 471/1/6 472/1/6 476/1/6
f 476/1/6 472/1/6 477/1/6
f 478/1/6 479/1/6 482/1/6
f 482/1/6 479/1/6 483/1/6
f 480/1/6 481/1/6 484/1/6
f 484/1/6 481/1/6 485/1/6
f 486/1/6 487/1/6 488/1/6
f 488/1/6 487/1/6 489/1/6
